<svg width="150" height="150" viewBox="0 0 150 150" fill="none" xmlns="http://www.w3.org/2000/svg">
<circle cx="75" cy="75" r="75" fill="#100E1C"/>
<path d="M63.2369 115H46V35H77.4458C81.4056 35 84.9384 35.6113 88.0442 36.8338C91.1499 37.9799 93.751 39.6609 95.8474 41.8768C98.0214 44.0926 99.6519 46.7669 100.739 49.8997C101.826 53.0325 102.369 56.5473 102.369 60.4441C102.369 66.0984 101.127 70.9503 98.6426 75C96.158 79.0497 92.6252 81.724 88.0442 83.0229L104 115H84.8996L71.2731 85.3152H63.2369V115ZM73.253 72.02C77.3681 72.02 80.2021 71.256 81.755 69.7278C83.3855 68.1996 84.2008 65.6781 84.2008 62.1633V58.7249C84.2008 55.2101 83.3855 52.6886 81.755 51.1605C80.2021 49.6323 77.3681 48.8682 73.253 48.8682H63.2369V72.02H73.253Z" fill="#ebe3fc"/>
</svg>
